inDegrees=no
num_controls=7
num_derivatives=13
num_iterations=235
num_multipliers=7
num_parameters=0
num_slacks=7
num_states=26
objective=0.509479
objective_accelerations=0.039672
objective_balance=0.003587
objective_effort=0.029024
objective_height=0.324228
objective_ligament=0.112967
solver_duration=3003.117120
status=Solve_Succeeded
success=true
DataType=double
version=3
OpenSimVersion=4.5
endheader
time	/jointset/ground_pelvis/pelvis_tilt/value	/jointset/ground_pelvis/pelvis_tx/value	/jointset/ground_pelvis/pelvis_ty/value	/jointset/hip_l/hip_flexion_l/value	/jointset/hip_l/hip_adduction_l/value	/jointset/hip_l/hip_rotation_l/value	/jointset/back/lumbar_extension/value	/jointset/patellofemoral_l/patellar_flexion_l/value	/jointset/knee_l/knee_flexion_l/value	/jointset/knee_l/knee_adduction_l/value	/jointset/knee_l/knee_rotation_l/value	/jointset/ankle_l/ankle_angle_l/value	/jointset/subtalar_l/subtalar_angle_l/value	/jointset/ground_pelvis/pelvis_tilt/speed	/jointset/ground_pelvis/pelvis_tx/speed	/jointset/ground_pelvis/pelvis_ty/speed	/jointset/hip_l/hip_flexion_l/speed	/jointset/hip_l/hip_adduction_l/speed	/jointset/hip_l/hip_rotation_l/speed	/jointset/back/lumbar_extension/speed	/jointset/patellofemoral_l/patellar_flexion_l/speed	/jointset/knee_l/knee_flexion_l/speed	/jointset/knee_l/knee_adduction_l/speed	/jointset/knee_l/knee_rotation_l/speed	/jointset/ankle_l/ankle_angle_l/speed	/jointset/subtalar_l/subtalar_angle_l/speed	/forceset/tau_hip_flexion_l	/forceset/tau_hip_adduction_l	/forceset/tau_hip_rotation_l	/forceset/tau_knee_flexion_l	/forceset/tau_ankle_angle_l	/forceset/tau_subtalar_angle_l	/forceset/tau_lumbar_extension	lambda_cid13_p0	lambda_cid13_p1	lambda_cid13_p2	lambda_cid13_p3	lambda_cid13_p4	lambda_cid13_p5	lambda_cid14_p0	/jointset/ground_pelvis/pelvis_tilt/accel	/jointset/ground_pelvis/pelvis_tx/accel	/jointset/ground_pelvis/pelvis_ty/accel	/jointset/hip_l/hip_flexion_l/accel	/jointset/hip_l/hip_adduction_l/accel	/jointset/hip_l/hip_rotation_l/accel	/jointset/back/lumbar_extension/accel	/jointset/patellofemoral_l/patellar_flexion_l/accel	/jointset/knee_l/knee_flexion_l/accel	/jointset/knee_l/knee_adduction_l/accel	/jointset/knee_l/knee_rotation_l/accel	/jointset/ankle_l/ankle_angle_l/accel	/jointset/subtalar_l/subtalar_angle_l/accel	gamma_cid13_p0	gamma_cid13_p1	gamma_cid13_p2	gamma_cid13_p3	gamma_cid13_p4	gamma_cid13_p5	gamma_cid14_p0
1	-0.1556730557857305	-0.07271378847195049	0.7307026951733919	1.233334303343873	-0.3312241226729769	0.008459121123697406	-0.9599309657785011	1.177842544430871	1.177842544430817	-0.089171734676171	-0.1744305682589006	0.1803781448475958	0.02177685456103424	0.1151188170886249	0.02395723487740416	0.06656490791815595	-0.2984499779437415	0.002875680260299028	-0.06528675522122032	0.0004965112189282434	-0.166411630424367	-0.1664116304243634	0.00588954081315942	0.005324707986963965	0.009097245789883626	0.007912197963284002	-0.4016059163651714	0.03733821986423737	-0.004381325156514341	-0.2775495739026778	0.04428483269510515	0.03648942510599545	0.4354444468127932	-35.82639692945157	-9.755616260834067	1.30798031908265	13.86469194310812	-785.8643639970858	-61.31739149091099	-1.466970229948374	1.136461681981657	0.04760192521936416	1.27453465228403	-4.690619841427084	0.1357696092927383	-1.730173261570806	0.07952812431173642	-4.403415351035272	-4.403415351035255	0.2232904050255456	0.1274819070982865	-1.100049846306631	-0.2243869595589542	-7.297915420794751e-09	-5.224706447756417e-09	5.560332070614649e-08	2.98842470052898e-11	-1.991811155639076e-08	6.204501237999414e-08	-1.294309254310192e-08
1.01	-0.1544661579530348	-0.07247177002623581	0.7314317132069399	1.230117135907054	-0.3311878972749616	0.007719440128642268	-0.9599201706545681	1.175958923079834	1.1759589230798	-0.08910018676095156	-0.1743703114369267	0.1804142921469106	0.02184563875132454	0.1261937656187059	0.02445481429301593	0.07921443319884235	-0.3448782618469278	0.004376734606246174	-0.08263420487995374	0.001793166231758727	-0.2102816741438057	-0.2102816741438002	0.008421050407859502	0.006721396117984496	-0.001871852679999142	0.005851308986462402	-0.4010399716475785	0.037452517707448	-0.004420235995219277	-0.277161013282801	0.04417293954926198	0.03664464902179788	0.4354410688835698	-35.82864896966811	-9.835569003228102	1.335499982576037	13.66500220510371	-785.5681855960296	-61.43563796049186	-1.502183868632226	1.082962259578291	0.05209135127363092	1.256516465254291	-4.603147752029099	0.1583686070888993	-1.73476043436639	0.1743320874687861	-4.374150579257893	-4.374150579257597	0.2682244581417058	0.1449901587812739	-1.095950264236245	-0.1959459548198889	-1.39494230513372e-08	-1.454900845652828e-08	7.476517437145823e-08	6.91751715364074e-09	-2.575018188976063e-08	6.826506577383407e-08	-1.724286900055631e-08
1.02	-0.1531505204708252	-0.0722245247060567	0.7322864974931531	1.226438842613749	-0.3311364422815172	0.006806738713728048	-0.9598924894008838	1.173637530952231	1.173637530952217	-0.08900329510550029	-0.1742962421551011	0.1803406263781451	0.02189401283423154	0.136866746991062	0.0250026097702905	0.09171815845124852	-0.3906751492407048	0.005921599345920302	-0.09989083919235842	0.003873737152585848	-0.2539657857376338	-0.2539657857376254	0.01095828886053842	0.00808719995609678	-0.01286536782616785	0.003830176486594754	-0.4004740269299935	0.03756681555065593	-0.00445914683394659	-0.2767724526629251	0.04406104640341937	0.03679987293759762	0.4354376909543403	-35.84291300473221	-9.912058825223051	1.360914335614229	13.51960507828804	-785.4278323366601	-61.54346489221312	-1.546091109182692	1.056068250436667	0.05764513755192358	1.245374646627986	-4.564340539545197	0.144531688038125	-1.712010192305073	0.2363113059108268	-4.366228925913135	-4.366228925912924	0.2244361766213158	0.1213050485166115	-1.10493318156382	-0.2164356641681758	-2.024901811388775e-08	-2.487285043716151e-08	9.115033071978411e-08	1.343066265914338e-08	-3.39772880060495e-08	7.19549695076383e-08	-2.090434250822793e-08
1.03	-0.1517298545690864	-0.07197134935675412	0.7332657398205301	1.22230489997196	-0.3310692862842994	0.005721933354668177	-0.9598393432847624	1.170879958120004	1.170879958120024	-0.08888107113005436	-0.1742086159792406	0.1801571698758131	0.02192251580683661	0.1472303695505038	0.02566115315265264	0.1041212094335883	-0.4360931697277741	0.007519249197398574	-0.1170582210190518	0.006960481799530639	-0.2975459805365816	-0.2975459805365783	0.01348206807691748	0.009435062484561569	-0.02380381219548715	0.001889864146029739	-0.4012376925958593	0.03791344807551224	-0.004513134227743696	-0.2759613249115794	0.04379439189639707	0.03708627077069783	0.4369233034748358	-35.94523563851501	-10.03943618363405	1.405106911461188	13.07594348660763	-786.2137621061806	-61.68458123709566	-1.599005472033707	1.021097997171813	0.07426692538582849	1.236397189674268	-4.527504259705305	0.1688215177683676	-1.717323344820493	0.3756054029745147	-4.353489797191887	-4.353489797192784	0.26567055112791	0.1411048133110326	-1.084984039628945	-0.1799189263032283	-2.654502223186695e-08	-3.520689180526272e-08	1.075071534220183e-07	1.993998686463446e-08	-4.222883326298041e-08	7.561905538776868e-08	-2.455930272049361e-08
1.04	-0.1502066346940576	-0.07171072697626639	0.7343687380308579	1.217717382834017	-0.3309858658117528	0.004465809943946395	-0.9597491798503847	1.167686668331727	1.167686668331781	-0.08873374501105086	-0.1741075955864332	0.1798649921347853	0.02193219767457566	0.1573775416488988	0.02649201600731763	0.1164693350414046	-0.4813900484715453	0.0091744944115027	-0.134154449524506	0.01127720080200038	-0.3411091769477815	-0.3411091769477844	0.01597871757256515	0.01076604334501015	-0.03460961556532527	6.595551336145518e-05	-0.4020013582617273	0.03826008060037069	-0.004567121621551372	-0.2751501971602343	0.04352773738937543	0.03737266860380101	0.4384089159953295	-36.05978746647633	-10.16338457755936	1.447281816637244	12.68529635287326	-787.1598295403056	-61.81613046443002	-1.661301332141607	1.012778158227315	0.09210903201249329	1.234389571723266	-4.540112190885568	0.1560507605632897	-1.697779528057266	0.4823061770157633	-4.362829248363557	-4.36282924836355	0.2190102324750396	0.1179287149133514	-1.078404981667584	-0.1931549225888386	-2.922993541942762e-08	-4.545890660143142e-08	1.228066959688486e-07	1.924735597951746e-08	-4.546416760518043e-08	7.684041179072777e-08	-2.804168623985797e-08
